Coordinates
version=1
nRows=7
nColumns=40
inDegrees=yes

Units are S.I. units (second, meters, Newtons, ...)
Angles are in degrees.

endheader
time	pelvis_tilt	pelvis_list	pelvis_rotation	pelvis_tx	pelvis_ty	pelvis_tz	hip_flexion_r	hip_adduction_r	hip_rotation_r	knee_angle_r	knee_angle_r_beta	ankle_angle_r	subtalar_angle_r	mtp_angle_r	hip_flexion_l	hip_adduction_l	hip_rotation_l	knee_angle_l	knee_angle_l_beta	ankle_angle_l	subtalar_angle_l	mtp_angle_l	lumbar_extension	lumbar_bending	lumbar_rotation	arm_flex_r	arm_add_r	arm_rot_r	elbow_flex_r	pro_sup_r	wrist_flex_r	wrist_dev_r	arm_flex_l	arm_add_l	arm_rot_l	elbow_flex_l	pro_sup_l	wrist_flex_l	wrist_dev_l
     50.49000000	     -3.13271433	     -5.50627738	      8.72557198	      1.03163672	      0.92221361	      0.47224013	      1.55000730	      3.61639258	    -17.48113965	     13.11376097	     13.11376097	     15.99892913	     -2.37000795	     -4.97184906	     31.93404662	     -7.01932511	      1.56523660	     22.74272439	     22.74272439	      4.50436497	     -7.94463223	      6.58826493	    -10.82175962	      4.41524178	      4.30056852	     38.92362809	    -13.78306721	      2.24112735	     86.44402893	     44.21283036	      0.00000000	      0.00000000	     -3.09837464	     -7.65334068	    -12.48657106	     26.57517441	     46.98998736	      0.00000000	      0.00000000
     50.50271429	     -3.07243602	     -5.63877172	      8.58776876	      1.03362193	      0.92110374	      0.47048654	      0.91207949	      3.70359395	    -17.52322658	     13.02077473	     13.02077473	     16.72841484	     -1.74784560	     -4.13682442	     31.26335615	     -7.16079090	      1.59465542	     23.22568077	     23.22568077	      3.60073821	     -8.80653950	      4.70056247	    -10.59963036	      4.45589650	      4.00326312	     39.35108305	    -13.23507102	      3.06231780	     84.29109514	     44.32420767	      0.00000000	      0.00000000	     -3.34706739	     -7.76350873	    -12.95731322	     27.52033697	     47.01492558	      0.00000000	      0.00000000
     50.51542857	     -3.11158482	     -5.63414785	      8.39234358	      1.03564074	      0.91998462	      0.46872069	      0.44416097	      3.62230795	    -17.30733619	     13.04086626	     13.04086626	     17.07671061	     -1.70024484	     -4.17154431	     30.72642950	     -7.19174870	      1.46984620	     23.85970773	     23.85970773	      3.56809132	     -9.15974293	      4.57178173	    -10.31329518	      4.28734029	      4.21279434	     38.67002991	    -13.06418295	      3.27972142	     83.90569820	     44.33142580	      0.00000000	      0.00000000	     -3.09304033	     -7.91227796	    -13.00753078	     27.70880544	     47.02415055	      0.00000000	      0.00000000
     50.52814286	     -3.20232250	     -5.65155608	      8.21899862	      1.03761833	      0.91892528	      0.46673622	      0.06506540	      3.53495663	    -17.07314170	     13.11090687	     13.11090687	     17.44678981	     -1.66624059	     -4.24909454	     30.20078136	     -7.18513988	      1.46443920	     24.29871563	     24.29871563	      3.74695683	     -9.39929837	      4.41840325	    -10.01004844	      4.21307267	      4.24553827	     38.14622353	    -12.92166304	      3.43725788	     83.60994530	     44.33551779	      0.00000000	      0.00000000	     -2.76440846	     -8.05429749	    -13.02927475	     27.88570206	     47.03218193	      0.00000000	      0.00000000
     50.54085714	     -3.15553504	     -5.61104620	      8.00373384	      1.03961449	      0.91816606	      0.46475152	     -0.34026283	      3.35461049	    -16.83394163	     13.43883350	     13.43883350	     17.73709760	     -1.74116578	     -4.12892996	     29.74918817	     -7.14362229	      1.49997496	     25.06312745	     25.06312745	      4.01392374	     -9.82858873	      4.04289643	     -9.86637525	      3.93991680	      4.57756241	     37.28798846	    -12.98823103	      3.67286848	     82.55446908	     44.36462117	      0.00000000	      0.00000000	     -2.35361685	     -8.21206339	    -13.09567590	     28.23323789	     47.04480143	      0.00000000	      0.00000000
     50.55357143	     -3.14068557	     -5.56493940	      7.84504958	      1.04146310	      0.91767338	      0.46261401	     -0.66112467	      3.14508615	    -16.60267456	     13.82588888	     13.82588888	     17.97667255	     -1.85508874	     -4.09669045	     29.28686736	     -7.04328942	      1.62181641	     25.57067380	     25.57067380	      4.39949006	    -10.07423377	      3.72931119	     -9.74757802	      3.73579677	      4.65074577	     36.39343340	    -12.81785756	      3.93271969	     81.84643919	     44.37844858	      0.00000000	      0.00000000	     -1.90710950	     -8.37844583	    -13.12645710	     28.49630678	     47.05491454	      0.00000000	      0.00000000
     50.56628571	     -3.24767261	     -5.48415483	      7.60049679	      1.04290207	      0.91718563	      0.46040995	     -0.31686319	      2.76237341	    -15.96436261	     15.24980275	     15.24980275	     18.90418390	     -2.63456256	     -2.13216518	     28.99499798	     -6.88921100	      1.69186559	     25.98224943	     25.98224943	      4.43528555	    -10.67029815	      2.53004603	     -9.41569666	      3.47694108	      4.15980589	     36.70205692	    -12.25076348	      4.91497771	     77.66186131	     44.53179885	      0.00000000	      0.00000000	     -1.94378348	     -8.55330688	    -13.45953635	     29.23432463	     47.05740492	      0.00000000	      0.00000000
